<svg width="32" height="148" viewBox="0 0 32 148" fill="none" xmlns="http://www.w3.org/2000/svg">
<path d="M-2 158L35 126" stroke="#7F7F7F" stroke-width="2"/>
<path d="M-2 166L35 134" stroke="#7F7F7F" stroke-width="2"/>
<path d="M-2 174L35 142" stroke="#7F7F7F" stroke-width="2"/>
<path d="M-2 142L35 110" stroke="#7F7F7F" stroke-width="2"/>
<path d="M-2 135L35 103" stroke="#7F7F7F" stroke-width="2"/>
<path d="M-2 150L35 118" stroke="#7F7F7F" stroke-width="2"/>
<path d="M-2 112L35 80" stroke="#7F7F7F" stroke-width="2"/>
<path d="M-2 120L35 88" stroke="#7F7F7F" stroke-width="2"/>
<path d="M-2 128L35 96" stroke="#7F7F7F" stroke-width="2"/>
<path d="M-2 96L35 64" stroke="#7F7F7F" stroke-width="2"/>
<path d="M-2 89L35 57" stroke="#7F7F7F" stroke-width="2"/>
<path d="M-2 104L35 72" stroke="#7F7F7F" stroke-width="2"/>
<path d="M-2 66L35 34" stroke="#7F7F7F" stroke-width="2"/>
<path d="M-2 74L35 42" stroke="#7F7F7F" stroke-width="2"/>
<path d="M-2 82L35 50" stroke="#7F7F7F" stroke-width="2"/>
<path d="M-2 50L35 18" stroke="#7F7F7F" stroke-width="2"/>
<path d="M-2 43L35 11" stroke="#7F7F7F" stroke-width="2"/>
<path d="M-2 58L35 26" stroke="#7F7F7F" stroke-width="2"/>
<path d="M-2 20L35 -12" stroke="#7F7F7F" stroke-width="2"/>
<path d="M-2 28L35 -4" stroke="#7F7F7F" stroke-width="2"/>
<path d="M-2 36L35 4" stroke="#7F7F7F" stroke-width="2"/>
<path d="M-2 4L35 -28" stroke="#7F7F7F" stroke-width="2"/>
<path d="M-2 12L35 -20" stroke="#7F7F7F" stroke-width="2"/>
</svg>
